<?xml version="1.0" encoding="iso-8859-1"?>
<!-- Generator: Adobe Illustrator 19.0.0, SVG Export Plug-In . SVG Version: 6.00 Build 0)  -->
<svg version="1.1" id="Layer_1" xmlns="http://www.w3.org/2000/svg" xmlns:xlink="http://www.w3.org/1999/xlink" x="0px" y="0px"
	 viewBox="0 0 512 512" style="enable-background:new 0 0 512 512;" xml:space="preserve">
<g>
	<g>
		<path d="M397.175,393.721h-13.786v-33.54c0-9.22-7.475-16.696-16.696-16.696h-20.896l-2.921-24.797
			c-0.266,0.004-0.529,0.02-0.795,0.02H169.918c-0.267,0-0.53-0.016-0.795-0.02l-2.921,24.797h-20.896
			c-9.22,0-16.696,7.475-16.696,16.696v33.54h-13.786c-9.22,0-16.696,7.475-16.696,16.696v84.887c0,9.22,7.475,16.696,16.696,16.696
			h282.35c9.22,0,16.696-7.475,16.696-16.696v-84.887C413.871,401.197,406.396,393.721,397.175,393.721z"/>
	</g>
</g>
<g>
	<g>
		<path d="M342.082,201.69h-12.997l-7.042-59.747c12.635-14.976,20.289-34.335,20.289-55.613C342.331,38.727,303.604,0,256,0
			s-86.331,38.727-86.331,86.331c0,21.262,7.65,40.626,20.289,55.609l-7.042,59.752h-12.997c-9.22,0-16.696,7.475-16.696,16.696
			v50.236c0,9.219,7.475,16.695,16.696,16.695h172.163c9.22,0,16.696-7.475,16.696-16.696v-50.236
			C358.777,209.165,351.302,201.69,342.082,201.69z"/>
	</g>
</g>
<g>
</g>
<g>
</g>
<g>
</g>
<g>
</g>
<g>
</g>
<g>
</g>
<g>
</g>
<g>
</g>
<g>
</g>
<g>
</g>
<g>
</g>
<g>
</g>
<g>
</g>
<g>
</g>
<g>
</g>
</svg>
