<?xml version="1.0" encoding="iso-8859-1"?>
<!-- Generator: Adobe Illustrator 21.0.0, SVG Export Plug-In . SVG Version: 6.00 Build 0)  -->
<svg xmlns="http://www.w3.org/2000/svg" xmlns:xlink="http://www.w3.org/1999/xlink" version="1.1" id="Capa_1" x="0px" y="0px" viewBox="0 0 512 512" style="enable-background:new 0 0 512 512;" xml:space="preserve" width="512" height="512">
<path style="fill-rule:evenodd;clip-rule:evenodd;" d="M456.83,166.411c6.681,22.419,8.22,68.544-4.54,113.5  c-6.42,22.59-15.81,43.5-28.12,62.64c13.68,3.57,26.14,10.19,36.61,19.08l6.3-6.3c28.97-28.97,44.92-67.48,44.92-108.44  C512,210.202,489.14,178.861,456.83,166.411z"/>
<path style="fill-rule:evenodd;clip-rule:evenodd;" d="M87.83,342.552c-12.31-19.14-21.7-40.05-28.12-62.64  c-12.736-44.872-11.24-91.017-4.54-113.5C22.86,178.861,0,210.202,0,246.891c0,40.96,15.95,79.47,44.92,108.44l6.3,6.3  C61.69,352.742,74.15,346.121,87.83,342.552z"/>
<path style="fill-rule:evenodd;clip-rule:evenodd;" d="M400.6,369.532H111.4c-34.849,0-63.2,28.352-63.2,63.2s28.351,63.2,63.2,63.2  h289.2c34.849,0,63.2-28.351,63.2-63.2S435.448,369.532,400.6,369.532z M127.467,447.732c-8.279,0-15-6.722-15-15  c0-8.279,6.721-15,15-15s15,6.721,15,15C142.467,441.01,135.745,447.732,127.467,447.732z M191.733,447.732c-8.279,0-15-6.722-15-15  c0-8.279,6.721-15,15-15s15,6.721,15,15C206.733,441.01,200.012,447.732,191.733,447.732z M256,447.732c-8.279,0-15-6.722-15-15  c0-8.279,6.721-15,15-15s15,6.721,15,15C271,441.01,264.279,447.732,256,447.732z M320.267,447.732c-8.278,0-15-6.722-15-15  c0-8.279,6.721-15,15-15c8.279,0,15,6.721,15,15C335.267,441.01,328.545,447.732,320.267,447.732z M384.533,447.732  c-8.278,0-15-6.722-15-15c0-8.279,6.722-15,15-15s15,6.721,15,15C399.533,441.01,392.812,447.732,384.533,447.732z"/>
<path style="fill-rule:evenodd;clip-rule:evenodd;" d="M270.6,108.008c0.25,1.09,0.4,2.22,0.4,3.39v34.26l-15,11.25l-15-11.25  v-34.26c0-1.17,0.15-2.3,0.4-3.39c-18.86-6.16-32.53-23.92-32.53-44.81c0-25.99,21.14-47.13,47.13-47.13s47.13,21.14,47.13,47.13  C303.13,84.089,289.46,101.848,270.6,108.008z"/>
<g>
	<path style="fill-rule:evenodd;clip-rule:evenodd;" d="M241,145.662l-20.99-15.741c-15.01-11.26-33.61-17.46-52.38-17.46   c-48.13,0-87.3,39.17-87.3,87.3c0,11.12-4.96,78.19,42.05,139.77H241V145.662z"/>
	<path style="fill-rule:evenodd;clip-rule:evenodd;" d="M431.67,199.762c0-48.13-39.17-87.3-87.3-87.3   c-18.77,0-37.37,6.2-52.38,17.46L271,145.662v193.869h118.62C436.63,277.952,431.67,210.881,431.67,199.762z"/>
</g>















</svg>
