<svg height="511pt" viewBox="-62 0 511 511.99914" width="511pt" xmlns="http://www.w3.org/2000/svg"><path d="m221.867188 28.039062c.171874.183594 17.582031 19.25 38.644531 38.867188l17.222656-46.71875c2.15625-5.859375.464844-12.441406-4.257813-16.527344-4.722656-4.089844-11.480468-4.820312-16.96875-1.847656l-39.660156 21.511719c1.785156 1.425781 3.464844 3 5.019532 4.714843zm0 0"/><path d="m78.902344 75.726562c16.441406-22.8125 37.523437-39.808593 62.160156-50.371093l-10.417969-12.574219c-4.230469-5.105469-11.308593-6.828125-17.410156-4.238281-1.304687.554687-32.238281 14.027343-60.179687 56.355469-15.9375 24.15625-27.894532 53.023437-35.527344 85.800781-9.378906 40.277343-12.242188 86.6875-8.503906 137.945312.410156 5.636719 3.957031 10.566407 9.175781 12.75l18.429687 7.703125c-1.136718-13.503906-2-28.300781-2.292968-43.847656-1.539063-82.59375 13.453124-146.359375 44.566406-189.523438zm0 0"/><path d="m217.273438 212.386719c13.125 3.144531 25.910156 4.296875 37.601562 4.292969 30.796875 0 54-7.984376 55.695312-8.585938 5.992188-2.117188 9.996094-7.785156 9.996094-14.140625v-45.4375c0-8.285156-6.71875-15-15-15-6.996094 0-27.03125-10.835937-60.46875-41.371094-24.085937-21.996093-44.480468-44.375-44.6875-44.597656-3.265625-3.589844-8.074218-5.378906-12.894531-4.800781-35.679687 4.304687-64.308594 21.105468-85.089844 49.9375-52.230469 72.46875-39.9375 202.742187-31.910156 256.984375h224.566406zm-43.363282-73.902344c-8.242187 0-14.921875-6.683594-14.921875-14.925781 0-8.242188 6.679688-14.925782 14.921875-14.925782 8.238282 0 14.917969 6.679688 14.917969 14.925782 0 8.242187-6.679687 14.925781-14.917969 14.925781zm0 0"/><path d="m40.324219 423.664062h308.195312c0-24.300781-19.695312-43.996093-43.996093-43.996093h-220.199219c-24.300781 0-44 19.695312-44 43.996093zm0 0"/><path d="m.5 468.664062v28.335938c0 8.28125 6.714844 15 15 15h357.847656c8.285156 0 15-6.71875 15-15v-28.335938c0-8.285156-6.714844-15-15-15h-357.847656c-8.285156 0-15 6.714844-15 15zm0 0"/></svg>