<?xml version="1.0" encoding="iso-8859-1"?>
<!-- Generator: Adobe Illustrator 19.0.0, SVG Export Plug-In . SVG Version: 6.00 Build 0)  -->
<svg version="1.1" id="Capa_1" xmlns="http://www.w3.org/2000/svg" xmlns:xlink="http://www.w3.org/1999/xlink" x="0px" y="0px"
	 viewBox="0 0 512 512" style="enable-background:new 0 0 512 512;" xml:space="preserve">
<g>
	<g>
		<g>
			<path d="M166,241h31.049l-23.168,140h164.237L314.95,241H346c8.284,0,15-6.716,15-15v-51c0-8.284-6.716-15-15-15h-20.786
				C341.194,142.994,351,120.122,351,95c0-52.383-42.617-95-95-95s-95,42.617-95,95c0,25.122,9.806,47.994,25.786,65H166
				c-8.284,0-15,6.716-15,15v51C151,234.284,157.716,241,166,241z"/>
			<path d="M399.949,491.484l-28.078-71c-2.264-5.724-7.794-9.484-13.949-9.484H154.078c-6.155,0-11.686,3.76-13.949,9.484
				l-28.078,71c-1.827,4.619-1.249,9.842,1.544,13.95C116.388,509.542,121.033,512,126,512h260c4.967,0,9.612-2.458,12.404-6.566
				C401.197,501.326,401.775,496.103,399.949,491.484z"/>
		</g>
	</g>
</g>
<g>
</g>
<g>
</g>
<g>
</g>
<g>
</g>
<g>
</g>
<g>
</g>
<g>
</g>
<g>
</g>
<g>
</g>
<g>
</g>
<g>
</g>
<g>
</g>
<g>
</g>
<g>
</g>
<g>
</g>
</svg>
